REM DIRINDEX 1\2\6,1\2\7,1\2\8,1\3\9,1\3\10,1\3\11,1\4\12,1\4\13,1\4\14,1\5\15,1\5\16,1\5\17,1\5\18
REM DIRNAME folder01,folder02,folder03,folder04,folder05,folder06,folder07,folder08,folder09,folder10,folder11,folder12,folder13,folder14,folder15,folder16,folder17,folder18
TITLE ""
FILE "2Q_t_0720-0736.mp3" MP3
  TRACK 01 AUDIO
    TITLE "12:cjc019_3499"
    INDEX 01 00:00:00
  TRACK 02 AUDIO
    TITLE "0:"
    INDEX 01 00:08:58
  TRACK 03 AUDIO
    TITLE "13:cjc019_3500"
    INDEX 01 00:09:71
  TRACK 04 AUDIO
    TITLE "0:"
    INDEX 01 00:11:27
  TRACK 05 AUDIO
    TITLE "14:cjc019_3501"
    INDEX 01 00:12:09
  TRACK 06 AUDIO
    TITLE "0:"
    INDEX 01 00:13:53
  TRACK 07 AUDIO
    TITLE "13:cjc019_3502"
    INDEX 01 00:14:23
  TRACK 08 AUDIO
    TITLE "0:"
    INDEX 01 00:15:44
  TRACK 09 AUDIO
    TITLE "14:cjc019_3503"
    INDEX 01 00:16:30
  TRACK 10 AUDIO
    TITLE "0:"
    INDEX 01 00:19:44
  TRACK 11 AUDIO
    TITLE "13:cjc019_3504"
    INDEX 01 00:20:20
  TRACK 12 AUDIO
    TITLE "0:"
    INDEX 01 00:21:35
  TRACK 13 AUDIO
    TITLE "14:cjc019_3505"
    INDEX 01 00:22:21
  TRACK 14 AUDIO
    TITLE "0:"
    INDEX 01 00:23:34
  TRACK 15 AUDIO
    TITLE "13:cjc019_3506"
    INDEX 01 00:24:14
  TRACK 16 AUDIO
    TITLE "0:"
    INDEX 01 00:25:39
  TRACK 17 AUDIO
    TITLE "14:cjc019_3507"
    INDEX 01 00:26:20
  TRACK 18 AUDIO
    TITLE "0:"
    INDEX 01 00:30:03
  TRACK 19 AUDIO
    TITLE "13:cjc019_3508"
    INDEX 01 00:30:57
  TRACK 20 AUDIO
    TITLE "0:"
    INDEX 01 00:31:69
  TRACK 21 AUDIO
    TITLE "14:cjc019_3509"
    INDEX 01 00:32:50
  TRACK 22 AUDIO
    TITLE "0:"
    INDEX 01 00:34:04
  TRACK 23 AUDIO
    TITLE "13:cjc019_3510"
    INDEX 01 00:34:59
  TRACK 24 AUDIO
    TITLE "0:"
    INDEX 01 00:36:17
  TRACK 25 AUDIO
    TITLE "14:cjc019_3511"
    INDEX 01 00:36:66
  TRACK 26 AUDIO
    TITLE "0:"
    INDEX 01 00:38:06
  TRACK 27 AUDIO
    TITLE "13:cjc019_3512"
    INDEX 01 00:38:53
  TRACK 28 AUDIO
    TITLE "0:"
    INDEX 01 00:39:72
  TRACK 29 AUDIO
    TITLE "14:cjc019_3513"
    INDEX 01 00:40:52
  TRACK 30 AUDIO
    TITLE "0:"
    INDEX 01 00:42:21
  TRACK 31 AUDIO
    TITLE "13:cjc019_3514"
    INDEX 01 00:42:72
  TRACK 32 AUDIO
    TITLE "0:"
    INDEX 01 00:44:12
  TRACK 33 AUDIO
    TITLE "14:cjc019_3515"
    INDEX 01 00:44:71
  TRACK 34 AUDIO
    TITLE "0:"
    INDEX 01 00:47:60
  TRACK 35 AUDIO
    TITLE "13:cjc019_3516"
    INDEX 01 00:48:38
  TRACK 36 AUDIO
    TITLE "0:"
    INDEX 01 00:49:74
  TRACK 37 AUDIO
    TITLE "14:cjc019_3517"
    INDEX 01 00:50:62
  TRACK 38 AUDIO
    TITLE "0:"
    INDEX 01 00:52:16
  TRACK 39 AUDIO
    TITLE "13:cjc019_3518"
    INDEX 01 00:52:71
  TRACK 40 AUDIO
    TITLE "0:"
    INDEX 01 00:54:42
  TRACK 41 AUDIO
    TITLE "14:cjc019_3519"
    INDEX 01 00:55:24
  TRACK 42 AUDIO
    TITLE "0:"
    INDEX 01 00:56:55
  TRACK 43 AUDIO
    TITLE "13:cjc019_3520"
    INDEX 01 00:57:27
  TRACK 44 AUDIO
    TITLE "0:"
    INDEX 01 00:58:52
  TRACK 45 AUDIO
    TITLE "14:cjc019_3521"
    INDEX 01 00:59:30
  TRACK 46 AUDIO
    TITLE "0:"
    INDEX 01 01:02:30
  TRACK 47 AUDIO
    TITLE "13:cjc019_3522"
    INDEX 01 01:03:00
  TRACK 48 AUDIO
    TITLE "0:"
    INDEX 01 01:04:27
  TRACK 49 AUDIO
    TITLE "14:cjc019_3523"
    INDEX 01 01:05:11
  TRACK 50 AUDIO
    TITLE "0:"
    INDEX 01 01:08:13
  TRACK 51 AUDIO
    TITLE "13:cjc019_3524"
    INDEX 01 01:08:62
  TRACK 52 AUDIO
    TITLE "0:"
    INDEX 01 01:10:02
  TRACK 53 AUDIO
    TITLE "14:cjc019_3525"
    INDEX 01 01:10:59
  TRACK 54 AUDIO
    TITLE "0:"
    INDEX 01 01:12:11
  TRACK 55 AUDIO
    TITLE "13:cjc019_3526"
    INDEX 01 01:12:66
  TRACK 56 AUDIO
    TITLE "0:"
    INDEX 01 01:14:19
  TRACK 57 AUDIO
    TITLE "14:cjc019_3527"
    INDEX 01 01:15:01
  TRACK 58 AUDIO
    TITLE "0:"
    INDEX 01 01:16:63
  TRACK 59 AUDIO
    TITLE "13:cjc019_3528"
    INDEX 01 01:17:39
  TRACK 60 AUDIO
    TITLE "0:"
    INDEX 01 01:18:58
  TRACK 61 AUDIO
    TITLE "14:cjc019_3529"
    INDEX 01 01:19:42
  TRACK 62 AUDIO
    TITLE "0:"
    INDEX 01 01:22:15
  TRACK 63 AUDIO
    TITLE "13:cjc019_3530"
    INDEX 01 01:22:68
  TRACK 64 AUDIO
    TITLE "0:"
    INDEX 01 01:24:24
  TRACK 65 AUDIO
    TITLE "14:cjc019_3531"
    INDEX 01 01:25:08
  TRACK 66 AUDIO
    TITLE "0:"
    INDEX 01 01:28:33
  TRACK 67 AUDIO
    TITLE "13:cjc019_3532"
    INDEX 01 01:29:13
  TRACK 68 AUDIO
    TITLE "0:"
    INDEX 01 01:30:44
  TRACK 69 AUDIO
    TITLE "14:cjc019_3533"
    INDEX 01 01:31:20
  TRACK 70 AUDIO
    TITLE "0:"
    INDEX 01 01:33:42
